<svg xmlns="http://www.w3.org/2000/svg" width="1172" height="180" viewBox="0 0 1172 180" fill="none">
  <defs>
    <linearGradient id="g" x1="0" y1="0" x2="1" y2="1">
      <stop offset="0" stop-color="#2171ec"/>
      <stop offset="1" stop-color="#0c5cd6"/>
    </linearGradient>
  </defs>
  <g transform="translate(24 24)">
  <rect x="0" y="0" width="132" height="132" rx="36.96" fill="url(#g)"/>
  <path d="M934 956V1556H1294V0H934V162Q860 63 771.0 17.0Q682 -29 565 -29Q358 -29 225.0 135.5Q92 300 92 559Q92 818 225.0 982.5Q358 1147 565 1147Q681 1147 770.5 1100.5Q860 1054 934 956ZM698 231Q813 231 873.5 315.0Q934 399 934 559Q934 719 873.5 803.0Q813 887 698 887Q584 887 523.5 803.0Q463 719 463 559Q463 399 523.5 315.0Q584 231 698 231Z" transform="translate(36.71 98.83) scale(0.03996 -0.03996)" fill="#ffffff"/>
  <circle cx="105.39" cy="26.61" r="9.90" fill="#ffffff" opacity="0.9"/>
  </g>
<path d="M934 956V1556H1294V0H934V162Q860 63 771.0 17.0Q682 -29 565 -29Q358 -29 225.0 135.5Q92 300 92 559Q92 818 225.0 982.5Q358 1147 565 1147Q681 1147 770.5 1100.5Q860 1054 934 956ZM698 231Q813 231 873.5 315.0Q934 399 934 559Q934 719 873.5 803.0Q813 887 698 887Q584 887 523.5 803.0Q463 719 463 559Q463 399 523.5 315.0Q584 231 698 231Z" transform="translate(190.00 140.14) scale(0.06445 -0.06445)" fill="#1d2024"/>
<path d="M160 436V1120H520V1008Q520 917 519.0 779.5Q518 642 518 596Q518 461 525.0 401.5Q532 342 549 315Q571 280 606.5 261.0Q642 242 688 242Q800 242 864.0 328.0Q928 414 928 567V1120H1286V0H928V162Q847 64 756.5 17.5Q666 -29 557 -29Q363 -29 261.5 90.0Q160 209 160 436Z" transform="translate(283.17 140.14) scale(0.06445 -0.06445)" fill="#1d2024"/>
<path d="M1004 815Q957 837 910.5 847.5Q864 858 817 858Q679 858 604.5 769.5Q530 681 530 516V0H172V1120H530V936Q599 1046 688.5 1096.5Q778 1147 903 1147Q921 1147 942.0 1145.5Q963 1144 1003 1139Z" transform="translate(375.82 140.14) scale(0.06445 -0.06445)" fill="#1d2024"/>
<path d="M172 1120H530V0H172ZM172 1556H530V1264H172Z" transform="translate(439.60 140.14) scale(0.06445 -0.06445)" fill="#1d2024"/>
<path d="M909 1556V1321H711Q635 1321 605.0 1293.5Q575 1266 575 1198V1120H881V864H575V0H217V864H39V1120H217V1198Q217 1381 319.0 1468.5Q421 1556 635 1556Z" transform="translate(483.52 140.14) scale(0.06445 -0.06445)" fill="#1d2024"/>
<path d="M1004 815Q957 837 910.5 847.5Q864 858 817 858Q679 858 604.5 769.5Q530 681 530 516V0H172V1120H530V936Q599 1046 688.5 1096.5Q778 1147 903 1147Q921 1147 942.0 1145.5Q963 1144 1003 1139Z" transform="translate(539.63 140.14) scale(0.06445 -0.06445)" fill="#1d2024"/>
<path d="M172 1120H530V0H172ZM172 1556H530V1264H172Z" transform="translate(603.41 140.14) scale(0.06445 -0.06445)" fill="#1d2024"/>
<path d="M209 387H569V0H209Z" transform="translate(647.34 140.14) scale(0.06445 -0.06445)" fill="#2171ec"/>
<path d="M705 891Q586 891 523.5 805.5Q461 720 461 559Q461 398 523.5 312.5Q586 227 705 227Q822 227 884.0 312.5Q946 398 946 559Q946 720 884.0 805.5Q822 891 705 891ZM705 1147Q994 1147 1156.5 991.0Q1319 835 1319 559Q1319 283 1156.5 127.0Q994 -29 705 -29Q415 -29 251.5 127.0Q88 283 88 559Q88 835 251.5 991.0Q415 1147 705 1147Z" transform="translate(696.16 140.14) scale(0.06445 -0.06445)" fill="#2171ec"/>
<path d="M1298 682V0H938V111V522Q938 667 931.5 722.0Q925 777 909 803Q888 838 852.0 857.5Q816 877 770 877Q658 877 594.0 790.5Q530 704 530 551V0H172V1120H530V956Q611 1054 702.0 1100.5Q793 1147 903 1147Q1097 1147 1197.5 1028.0Q1298 909 1298 682Z" transform="translate(785.53 140.14) scale(0.06445 -0.06445)" fill="#2171ec"/>
<path d="M172 1556H530V0H172Z" transform="translate(878.18 140.14) scale(0.06445 -0.06445)" fill="#2171ec"/>
<path d="M172 1120H530V0H172ZM172 1556H530V1264H172Z" transform="translate(922.11 140.14) scale(0.06445 -0.06445)" fill="#2171ec"/>
<path d="M1298 682V0H938V111V522Q938 667 931.5 722.0Q925 777 909 803Q888 838 852.0 857.5Q816 877 770 877Q658 877 594.0 790.5Q530 704 530 551V0H172V1120H530V956Q611 1054 702.0 1100.5Q793 1147 903 1147Q1097 1147 1197.5 1028.0Q1298 909 1298 682Z" transform="translate(966.03 140.14) scale(0.06445 -0.06445)" fill="#2171ec"/>
<path d="M1290 563V461H453Q466 335 544.0 272.0Q622 209 762 209Q875 209 993.5 242.5Q1112 276 1237 344V68Q1110 20 983.0 -4.5Q856 -29 729 -29Q425 -29 256.5 125.5Q88 280 88 559Q88 833 253.5 990.0Q419 1147 709 1147Q973 1147 1131.5 988.0Q1290 829 1290 563ZM922 682Q922 784 862.5 846.5Q803 909 707 909Q603 909 538.0 850.5Q473 792 457 682Z" transform="translate(1058.68 140.14) scale(0.06445 -0.06445)" fill="#2171ec"/>
</svg>
