<svg xmlns="http://www.w3.org/2000/svg" width="512" height="512" viewBox="0 0 512 512" fill="none">
  <defs>
    <linearGradient id="g" x1="0" y1="0" x2="1" y2="1">
      <stop offset="0" stop-color="#2171ec"/>
      <stop offset="1" stop-color="#0c5cd6"/>
    </linearGradient>
  </defs>
  <rect x="0" y="0" width="512" height="512" rx="122.88" fill="url(#g)"/>
  <path d="M934 956V1556H1294V0H934V162Q860 63 771.0 17.0Q682 -29 565 -29Q358 -29 225.0 135.5Q92 300 92 559Q92 818 225.0 982.5Q358 1147 565 1147Q681 1147 770.5 1100.5Q860 1054 934 956ZM698 231Q813 231 873.5 315.0Q934 399 934 559Q934 719 873.5 803.0Q813 887 698 887Q584 887 523.5 803.0Q463 719 463 559Q463 399 523.5 315.0Q584 231 698 231Z" transform="translate(142.38 383.33) scale(0.15500 -0.15500)" fill="#ffffff"/>
  <circle cx="423.53" cy="88.47" r="38.40" fill="#ffffff" opacity="0.9"/>
</svg>
